<svg width="17" height="16" viewBox="0 0 17 16" fill="none" xmlns="http://www.w3.org/2000/svg">
<path d="M6.8833 12.8766C8.26953 12.8766 9.54785 12.4284 10.5938 11.6813L14.5283 15.6159C14.7109 15.7985 14.9517 15.8898 15.209 15.8898C15.7485 15.8898 16.1304 15.4748 16.1304 14.9435C16.1304 14.6945 16.0474 14.4538 15.8647 14.2795L11.9551 10.3615C12.7769 9.28241 13.2666 7.94598 13.2666 6.49335C13.2666 2.98212 10.3945 0.110046 6.8833 0.110046C3.38037 0.110046 0.5 2.97382 0.5 6.49335C0.5 10.0046 3.37207 12.8766 6.8833 12.8766ZM6.8833 11.4987C4.14404 11.4987 1.87793 9.2326 1.87793 6.49335C1.87793 3.75409 4.14404 1.48798 6.8833 1.48798C9.62256 1.48798 11.8887 3.75409 11.8887 6.49335C11.8887 9.2326 9.62256 11.4987 6.8833 11.4987Z" fill="#3C3C43" fill-opacity="0.6"/>
</svg>
